<?xml version="1.0" standalone="no"?><!DOCTYPE svg PUBLIC "-//W3C//DTD SVG 1.1//EN" "http://www.w3.org/Graphics/SVG/1.1/DTD/svg11.dtd"><svg t="1676283062407" class="icon" viewBox="0 0 1024 1024" version="1.1" xmlns="http://www.w3.org/2000/svg" p-id="6162" xmlns:xlink="http://www.w3.org/1999/xlink" width="200" height="200"><path d="M192.792595 476.683187l652.79782 3.987764-1.889272 309.27423-652.79782-3.987765 1.889272-309.274229Z" fill="#FFFFFF" p-id="6163"></path><path d="M756.35 287c-69.61-38.11-151.05-46.4-229.05-48.1v-0.21h-13.63c-4.55 0-9.11-0.11-13.64-0.14v0.22c-78 0.75-159.55 8-229.61 45.32C59.28 396.4 77.08 573.2 126.07 589.93c83.1 28.37 107.06-55.88 179.32-87.19 40.83-17.7 121.7-24.21 199.89-23.56v0.1h6.95c2.31 0 4.65 0.05 7 0.09v-0.1c78.21 0.3 159 7.79 199.61 26 71.88 32.18 94.84 116.72 178.27 89.35 49.15-16.16 69.05-192.73-140.76-307.62z" fill="#F26140" p-id="6164"></path><path d="M756.35 287c-69.61-38.11-151.05-46.4-229.05-48.1v-0.21h-13.63c-4.55 0-9.11-0.11-13.64-0.14v0.22c-78 0.75-159.55 8-229.61 45.32C59.28 396.4 77.08 573.2 126.07 589.93c83.1 28.37 107.06-55.88 179.32-87.19 40.83-17.7 121.7-24.21 199.89-23.56v0.1h6.95c2.31 0 4.65 0.05 7 0.09v-0.1c78.21 0.3 159 7.79 199.61 26 71.88 32.18 94.84 116.72 178.27 89.35 49.15-16.16 69.05-192.73-140.76-307.62z" fill="#F26140" p-id="6165"></path><path d="M213.41 601.68c-0.57-3.28-13.88-81.45 2.77-169.4 9.86-52.11 28.27-96.68 54.73-132.47 33.29-45.05 79.27-76.09 136.68-92.26L413 226.8c-52.93 14.91-95.27 43.4-125.85 84.66-24.65 33.28-41.89 75-51.23 124-16.1 84.44-3 162-2.82 162.77zM325.83 553.45l-18-8.77c1.6-3.28 40-81.22 110.33-159.7C459.67 338.7 503.66 302 548.92 276c57-32.82 116.22-48.76 175.93-47.4l-0.46 20c-55.9-1.28-111.52 13.73-165.26 44.6-43.38 24.92-85.69 60.17-125.74 104.8-68.61 76.39-107.18 154.67-107.56 155.45zM537.42 521.49l-11.2-16.56c2.9-2 72.27-48.58 164.75-82.89 54.6-20.25 105.8-31.86 152.19-34.52 58.76-3.36 110 7.71 152.26 32.89l-10.24 17.18c-38.72-23.07-86-33.2-140.68-30.11-44.34 2.52-93.5 13.67-146.2 33.17C608 474.09 538.12 521 537.42 521.49z" fill="#FFFFFF" p-id="6166"></path><path d="M442.462 217.208l160.367 0.98-3.596 588.669-160.367-0.98z" fill="#3B3E44" p-id="6167"></path><path d="M442.44 217.18l160.36 1-0.15 25.17C656.15 249 709 261.07 756.35 287c209.81 114.89 189.91 291.46 140.73 307.59a99 99 0 0 1-30.9 5.36 74.91 74.91 0 0 1-26.46-4.76 155.67 155.67 0 0 1 5 40.06c-0.5 85.08-69 153.71-153.32 153.71h-0.93l-91-0.55-0.11 18.41-160.36-1 0.11-18.41-94.74-0.57c-84.69-0.51-152.93-70.16-152.42-155.56a155.69 155.69 0 0 1 7.81-47.91c-12.47 7.5-26 12.27-41.83 12.27a98.16 98.16 0 0 1-31.8-5.74c-49-16.73-66.79-193.53 144.37-305.87 52.9-28.14 112.33-39.19 171.86-43.24l0.14-23.64M412.62 187l-0.16 26.31A536.22 536.22 0 0 0 347 224.2c-33.65 7.9-63.31 18.82-90.68 33.38-36 19.15-67.77 41.23-94.43 65.63-24.32 22.26-44.6 46.61-60.25 72.36-27.1 44.63-40.1 93.43-36.57 137.36 1.54 19.33 6.38 37.06 14 51.25 9.15 17.12 22.06 28.92 37.33 34.14a128.87 128.87 0 0 0 41.5 7.35c1.39 0 2.76 0 4.13-0.07-0.06 1.84-0.1 3.68-0.11 5.53a184.87 184.87 0 0 0 52.83 130.79 182.27 182.27 0 0 0 129.41 55l64.74 0.39-0.11 18.41 30 0.18 160.37 1 30 0.18 0.11-18.41 61 0.37h1.12a182.24 182.24 0 0 0 129.31-53.76 184.73 184.73 0 0 0 54-129.78v-5.8a135.38 135.38 0 0 0 31.8-6.53c15.33-5 28.38-16.68 37.73-33.68 7.76-14.1 12.81-31.76 14.59-51.06 4-43.9-8.36-92.84-35-137.8-15.34-25.95-35.32-50.54-59.38-73.1-26.37-24.72-57.88-47.18-93.65-66.77-39-21.36-84.33-35.76-138-43.78l0.17-28.58-30-0.18-160.36-1-30-0.18z" fill="#3B3E44" p-id="6168"></path></svg>